<svg width="1621" height="321" viewBox="0 0 1621 321" fill="none" xmlns="http://www.w3.org/2000/svg">
<path d="M608 4.66667C602.134 7.06667 595.6 9.73333 593.334 10.5333C591.2 11.4667 587.6 12.9333 585.333 14C583.2 14.9333 577.2 17.4667 572 19.3333C566.933 21.3333 561.867 23.6 561.067 24.2667C559.733 25.3333 559.333 31.3333 559.333 46C559.333 61.2 558.933 66.6667 557.6 67.8667C556.533 68.6667 547.467 69.4667 534.533 69.6L513.333 70V97.3333V124.667L534.667 125.067C546.8 125.2 556.533 126 557.333 126.8C558.133 127.6 558.933 149.467 559.467 186.4C560.133 242.133 560.4 245.067 563.2 254.667C569.867 276.4 580.4 291.333 596 301.2C615.2 313.333 628 316.267 661.334 315.733L686.667 315.333L687.067 288.133C687.2 270.667 686.934 260.4 686 259.333C685.067 258.133 678.934 257.467 666.934 257.067C653.2 256.667 648.267 256 644.667 254.133C634.134 248.533 630.267 243.733 626.8 231.867C625.067 226.133 624.667 216.533 624.667 177.2C624.667 150.933 625.067 128.667 625.467 127.467C626.134 125.6 630 125.333 654.267 125.333C670.934 125.333 683.2 124.8 684.8 124C687.2 122.667 687.334 120.933 687.334 97.3333C687.334 78.6667 686.934 71.8667 685.734 71.0667C684.8 70.5333 670.8 69.7333 654.667 69.3333L625.334 68.6667L624.934 34.2667L624.667 -1.21107e-06L621.6 0.133332C620 0.266665 613.867 2.26667 608 4.66667Z" fill="#AFCAB3" fill-opacity="0.07"/>
<path d="M94 65.4667C62.6667 73.8667 40 88.2667 23.2 110.4C14.9333 121.467 6.8 138 3.06667 152C0 163.2 0 164.267 0 239.333V315.333H32H64L64.6667 243.333C65.4667 166.8 65.2 169.067 71.8667 156.133C81.7333 137.067 107.067 125.467 128.8 130C144.133 133.067 158.267 143.067 165.2 155.467C172.267 168.133 172.667 172.933 172.667 247.333V316L205.067 315.733L237.333 315.333V238.667V162L234.133 151.333C224.133 117.333 203.6 92 173.867 76.5333C155.733 67.0667 141.6 64 117.733 64.1333C107.333 64.1333 96.5333 64.8 94 65.4667Z" fill="#AFCAB3" fill-opacity="0.07"/>
<path d="M380 64.8C348.267 68.9333 334.933 73.4666 314 87.3333C291.2 102.533 271.2 130.267 264 156.667C260.8 168.267 259.333 190.533 260.667 206.667C264 246.4 287.2 282.933 322.133 303.467C343.867 316.133 361.2 320.533 390 320.533C411.733 320.667 423.333 318.8 440 312.933C460.8 305.6 481.2 290.133 492.267 273.2C501.867 258.533 508.533 238.4 504.533 235.867C501.867 234.267 447.733 234.4 444.667 236C443.2 236.8 441.2 239.467 440 241.867C434.8 252.667 421.867 261.733 406.133 265.6C380.4 271.733 354.533 264.8 337.6 247.333C333.733 243.333 329.333 237.6 327.867 234.4C322.533 223.733 320.4 217.6 321.2 216.133C321.867 215.067 349.467 214.667 414.667 214.667H507.067L508.533 210.267C512.933 196.267 511.2 170 504.4 148C497.867 126.933 488 111.2 471.2 95.3333C457.867 82.6666 436.4 71.6 418 68C404.8 65.4666 386.933 63.8666 380 64.8ZM399.333 119.467C410.133 121.867 422.133 128.667 428.933 136.133C435.733 143.6 440.933 154.533 440.4 160.267L440 164.667H382.667H325.333L324.933 161.6C324.133 156.533 331.067 144.4 339.2 136.133C354.533 120.533 376.8 114.267 399.333 119.467Z" fill="#AFCAB3" fill-opacity="0.07"/>
<path d="M1061.33 64.8C1030.13 67.4667 1005.33 77.6 982 97.4667C966.133 111.067 949.333 139.733 943.733 162.933C940.8 175.2 940.533 206 943.2 218.667C945.467 229.2 952.4 247.6 957.333 256.667C967.333 274.667 985.067 292.667 1003.47 303.467C1015.6 310.533 1022.53 313.333 1038.13 317.467C1054 321.733 1087.6 321.733 1105.47 317.6C1146.27 308 1174.27 283.333 1185.87 246.533C1187.87 240 1187.73 236.4 1185.2 235.467C1184 235.067 1170.4 234.667 1154.8 234.667C1123.47 234.667 1124.93 234.267 1120 243.867C1110.8 262 1080.4 272 1053.2 266C1036.8 262.4 1022.93 253.867 1014.53 242.4C1005.47 230.133 1000.93 219.467 1003.47 216.533C1004.67 214.933 1020.93 214.667 1096.13 214.667C1174.8 214.667 1187.47 214.4 1189.07 212.667C1193.2 208.667 1193.6 177.6 1189.87 161.467C1185.73 144 1178.13 126.533 1169.33 114.133C1148.53 84.8 1115.6 67.3333 1077.33 65.0667C1071.47 64.6667 1064.27 64.5333 1061.33 64.8ZM1080.67 119.467C1102.13 124.267 1120.67 142.133 1121.2 158.533L1121.33 164.667L1063.6 165.067C1015.47 165.333 1005.87 165.067 1005.2 163.467C1004.8 162.533 1006.4 157.6 1008.8 152.667C1021.2 126.4 1050.93 112.667 1080.67 119.467Z" fill="#AFCAB3" fill-opacity="0.07"/>
<path d="M1482.67 64.9334C1473.47 65.7334 1454.13 69.3334 1448.27 71.4667C1414.67 83.2 1385.6 110.4 1373.2 141.6C1361.73 170.4 1359.73 198.8 1367.33 227.333C1379.2 272 1412.8 305.867 1456.13 316.8C1472.13 320.8 1473.33 320.133 1477.87 305.333C1479.87 298.8 1480.67 292.4 1480.8 279.2C1480.93 269.6 1480.67 261.067 1480.13 260.267C1479.73 259.6 1476.53 258 1473.2 256.8C1466.27 254.533 1458.8 249.2 1454.67 244C1453.2 242.133 1447.2 235.867 1441.2 230C1426.8 215.867 1424.27 210.133 1424.13 193.333C1424.13 182.133 1424.53 179.733 1427.73 173.2C1429.73 169.067 1434.67 162.533 1438.8 158.533C1442.8 154.533 1447.33 149.2 1448.67 146.667C1457.73 129.067 1482.67 120.533 1502.67 128C1507.07 129.6 1514 131.333 1518 131.867C1532.8 133.733 1544.93 142.267 1550.4 154.533C1552.27 158.933 1553.07 163.867 1553.2 174.533C1553.33 182.267 1554.27 191.867 1555.07 195.6C1558.13 209.6 1551.6 228.533 1540.67 237.867C1538.27 239.733 1529.47 244.8 1521.07 249.067C1512.53 253.2 1504.67 258 1503.6 259.733C1501.87 262.4 1501.87 265.467 1503.07 283.2C1504.67 304.933 1507.33 315.067 1512.13 318.267C1514.67 319.867 1516.4 319.733 1526.13 317.333C1537.6 314.4 1557.33 305.467 1567.47 298.667C1575.73 293.2 1593.2 275.467 1598.93 266.8C1605.6 256.933 1611.87 243.6 1614.4 234.667C1615.6 230.667 1617.2 224.933 1618 222C1618.8 219.067 1619.87 208.8 1620.27 199.333C1621.87 161.6 1610.53 130.133 1585.33 103.2C1574.4 91.4667 1552.4 77.6001 1534.67 71.2001C1523.6 67.3334 1494.8 63.7334 1482.67 64.9334Z" fill="#AFCAB3" fill-opacity="0.07"/>
<path d="M716.4 70.8C714.267 72 714 74.8 714 97.8667C714 123.467 714 123.733 717.067 124.533C718.667 124.933 746.267 125.333 778.4 125.333C841.2 125.333 839.867 125.2 833.867 132.133C814.533 154.533 808.667 161.333 804.533 166C801.867 168.933 788.133 184.533 774 200.667C744.8 234 747.2 231.333 728.267 253.2L714 269.733L714.267 292.533L714.667 315.333L823.2 315.733C902.267 315.867 932.133 315.6 933.467 314.533C936 312.533 936.133 264 933.733 261.6C932.533 260.4 917.2 260 873.2 260C840.8 260 813.333 259.6 812.133 259.2C810.933 258.8 810 257.867 810 257.2C810 256.533 817.867 247.2 827.467 236.267C837.067 225.467 852.8 207.733 862.4 196.8C879.867 176.933 891.067 164.4 918.4 133.733L932.667 117.6V94.2667C932.667 74.2667 932.4 70.8 930.533 70.1333C926.8 68.6667 718.8 69.3333 716.4 70.8Z" fill="#AFCAB3" fill-opacity="0.07"/>
<path d="M1288 71.3333C1257.47 76.2667 1234.93 91.0667 1222.93 114.4C1213.2 133.067 1213.6 128.133 1213.07 226.933L1212.53 316H1244.67H1276.67V241.6C1276.67 161.733 1277.33 153.867 1283.6 144.933C1293.33 131.067 1299.6 129.067 1336 128.533C1351.47 128.267 1364.8 127.733 1365.73 127.333C1366.93 126.933 1367.33 120 1367.33 99.4667C1367.33 73.7333 1367.2 72 1364.8 70.6667C1361.07 68.8 1301.33 69.2 1288 71.3333Z" fill="#AFCAB3" fill-opacity="0.07"/>
</svg>
