<svg width="517" height="522" viewBox="0 0 517 522" fill="none" xmlns="http://www.w3.org/2000/svg">
<path d="M2.0219 0.965942L0.336983 1.84711L0.134793 261.181L0 520.582L1.48273 521.395C2.62847 522.006 55.1304 522.073 228.137 521.734C351.945 521.531 467.126 521.124 484.11 520.921L514.977 520.447L515.921 518.549C516.73 517.057 516.932 512.991 516.932 498.417C516.932 481.336 516.865 480.116 515.651 479.032C514.438 477.947 501.296 477.88 280.909 478.354L47.5146 478.761L45.1557 477.134C43.0664 475.71 42.7294 475.1 42.2577 471.508C41.9881 469.271 41.8533 372.818 41.9207 257.114C42.1229 49.2944 42.1229 46.7187 43.4708 45.7698C44.1448 45.2275 45.8297 44.4819 47.1776 44.143C50.6822 43.1263 468.474 43.1941 470.63 44.2108C473.394 45.4309 473.865 47.7354 473.798 57.6316C473.731 62.7152 473.731 67.1889 473.731 67.6633C473.865 69.3579 479.19 69.9001 496.443 69.9001C509.383 69.9001 514.303 69.6968 515.112 69.019C516.191 68.2734 516.258 65.4265 516.325 34.9925C516.325 4.15167 516.258 1.7793 515.18 0.965942C513.427 -0.321899 4.51557 -0.321899 2.0219 0.965942Z" fill="#AFCAB3" fill-opacity="0.13"/>
<path d="M344.397 118.771C339.679 119.042 334.759 119.652 333.276 120.194C331.794 120.804 327.615 121.753 323.976 122.431C319.73 123.177 316.562 124.193 315.079 125.21C313.799 126.091 311.44 127.108 309.89 127.515C308.272 127.989 306.25 129.006 305.307 129.887C304.363 130.768 302.274 131.988 300.589 132.666C298.904 133.344 296.747 134.7 295.736 135.784C294.793 136.801 293.647 137.682 293.175 137.682C292.299 137.682 284.414 145.477 284.414 146.358C284.414 146.697 283.672 147.307 282.729 147.714C281.785 148.188 280.707 149.273 280.37 150.154C280.033 151.103 279.089 152.187 278.348 152.594C277.539 153.001 276.394 154.492 275.854 155.848C275.315 157.203 273.967 159.304 272.956 160.525C271.878 161.745 270.732 164.117 270.328 166.15C269.923 168.048 268.845 170.963 267.902 172.522C265.61 176.453 264.936 183.503 265.206 199.702C265.475 213.394 265.947 216.784 268.171 219.766C268.912 220.783 269.923 223.426 270.463 225.731C271.137 228.713 272.013 230.34 273.563 231.831C274.709 232.916 275.652 234.271 275.652 234.814C275.652 235.762 277.809 238.542 281.448 242.337C285.425 246.472 292.501 252.911 293.108 252.911C293.512 252.911 294.86 253.996 296.141 255.284C297.489 256.572 298.904 257.656 299.443 257.656C299.915 257.656 301.195 258.537 302.206 259.622C303.217 260.706 305.374 261.926 306.992 262.401C308.609 262.875 310.631 263.96 311.44 264.841C312.316 265.79 314.607 267.01 316.562 267.552C318.516 268.094 320.538 268.976 321.01 269.45C322.425 270.873 324.312 271.687 328.356 272.5C330.446 272.975 333.344 274.127 334.759 275.144C336.174 276.16 338.803 277.381 340.622 277.855C342.442 278.329 344.734 279.414 345.745 280.295C346.823 281.176 349.384 282.193 351.608 282.668C353.967 283.074 357.067 284.43 359.224 285.786C361.246 287.073 363.403 288.158 364.009 288.158C364.616 288.158 366.233 289.039 367.581 290.124C368.996 291.276 371.086 292.496 372.366 292.903C373.579 293.309 375.399 294.733 376.41 296.021C377.354 297.241 378.567 298.325 379.106 298.325C379.645 298.325 380.723 299.206 381.532 300.291C382.274 301.375 383.689 302.595 384.498 303.07C385.374 303.544 386.452 304.764 386.857 305.849C387.328 306.866 388.339 308.221 389.215 308.764C390.092 309.306 391.17 310.933 391.574 312.356C392.046 313.779 393.327 316.423 394.54 318.321L396.629 321.71L396.831 333.843C397.168 348.145 396.696 352.415 394.742 355.398C393.866 356.618 392.653 359.126 391.911 361.023C391.237 362.854 389.822 365.226 388.744 366.243C387.733 367.192 386.857 368.344 386.857 368.818C386.857 369.225 384.228 372.207 381.06 375.393C376.747 379.663 374.388 381.426 372.097 382.239C370.412 382.781 368.12 383.934 367.109 384.815C365.155 386.509 364.885 386.509 353.765 388.136C346.419 389.153 340.555 388.95 329.906 387.119C327.682 386.781 325.66 386.442 325.391 386.442C325.189 386.442 324.043 385.696 322.965 384.747C321.819 383.798 319.662 382.578 318.179 382.036C315.753 381.222 314.203 380.002 309.957 375.664C309.418 375.19 307.935 373.631 306.587 372.275C305.239 370.92 303.487 368.615 302.746 367.056C302.004 365.565 300.858 363.938 300.319 363.464C299.713 362.989 298.904 361.295 298.567 359.736C298.163 358.244 296.949 354.991 295.871 352.551C294.591 349.5 293.782 346.45 293.512 342.722C292.906 335.741 291.962 334.114 288.997 334.927C287.784 335.266 283.268 335.876 279.022 336.283C273.158 336.825 270.53 337.435 268.104 338.655C266.014 339.74 262.847 340.553 258.668 341.096C255.231 341.502 251.996 342.18 251.592 342.519C250.244 343.603 250.581 348.552 252.131 351.534C253.883 354.787 254.49 356.821 255.77 363.396C256.444 366.853 257.185 368.818 258.129 369.496C259.005 370.174 259.747 372.004 260.218 374.58C260.69 376.952 261.499 379.121 262.24 379.799C262.982 380.409 264.33 382.578 265.206 384.544C266.149 386.577 267.632 388.882 268.576 389.695C269.519 390.509 270.26 391.593 270.26 392.135C270.26 394.44 285.559 409.352 288.929 410.436C289.738 410.708 290.614 411.453 290.816 412.131C291.019 412.741 292.838 414.029 294.928 414.842C296.949 415.723 299.511 417.079 300.454 417.96C301.465 418.774 304.094 419.79 306.25 420.197C308.474 420.672 310.901 421.62 311.642 422.298C313.731 424.264 317.236 424.874 330.648 425.823C340.285 426.433 345.542 426.433 355.921 425.823C371.49 424.806 374.321 424.332 376.275 422.502C377.151 421.688 379.376 420.739 381.263 420.333C383.15 419.926 386.048 418.706 387.665 417.689C389.283 416.605 391.709 415.452 392.99 414.978C394.27 414.571 396.629 413.148 398.247 411.86C399.864 410.572 401.549 409.487 402.021 409.487C402.425 409.487 403.436 408.539 404.312 407.386C405.121 406.302 406.536 405.082 407.48 404.743C408.356 404.404 409.434 403.319 409.771 402.37C410.108 401.421 411.187 400.337 412.063 399.998C413.006 399.659 414.22 398.507 414.759 397.49C415.298 396.406 416.511 395.118 417.455 394.643C418.398 394.101 419.476 392.678 419.881 391.458C420.285 390.237 421.027 389.085 421.566 388.882C422.105 388.678 423.453 386.713 424.599 384.476C425.677 382.239 427.227 380.07 427.968 379.663C428.845 379.189 429.384 377.969 429.721 375.597C429.99 373.36 430.799 371.326 432.012 369.835C433.428 368.073 434.034 366.175 434.641 362.176C435.045 359.193 436.191 353.974 437.134 350.449C440.235 338.791 440.032 325.709 436.663 315.745C435.989 313.576 435.045 309.441 434.641 306.595C434.102 302.867 433.495 300.901 432.349 299.545C430.867 297.783 429.316 293.784 429.316 291.75C429.316 291.344 428.777 290.53 428.103 290.056C427.429 289.581 426.149 288.09 425.273 286.802C424.396 285.514 422.644 283.278 421.431 281.854C420.218 280.499 419.207 278.872 419.207 278.329C419.207 277.787 418.061 276.567 416.713 275.686C415.298 274.737 412.332 272.297 410.108 270.196C407.884 268.094 405.188 265.858 404.043 265.315C402.964 264.705 400.875 263.214 399.46 261.994C398.112 260.706 396.494 259.689 395.955 259.689C395.416 259.689 394.338 259.079 393.664 258.402C391.979 256.707 389.148 255.216 386.317 254.606C385.037 254.335 383.082 253.25 381.869 252.166C380.656 251.149 378.23 249.929 376.41 249.522C374.658 249.115 372.299 248.167 371.221 247.353C370.142 246.608 367.177 245.455 364.548 244.777C361.987 244.1 359.022 242.812 357.876 241.863C356.798 240.914 354.304 239.829 352.349 239.423C350.395 238.948 348.171 238.067 347.43 237.321C346.621 236.576 343.655 235.424 340.757 234.678C337.387 233.797 334.826 232.712 333.681 231.696C332.737 230.747 330.917 229.798 329.704 229.527C328.558 229.255 326.334 228.035 324.784 226.747C323.302 225.46 321.819 224.443 321.482 224.443C320.74 224.443 313.394 217.19 313.394 216.445C313.394 216.038 312.653 215.157 311.844 214.479C309.822 212.92 309.081 211.429 308.07 207.158C307.598 205.261 306.722 203.227 306.115 202.482C304.363 200.584 304.565 192.246 306.452 189.128C307.261 187.841 308.07 185.333 308.34 183.503C308.676 181.401 309.485 179.436 310.698 178.08C311.709 176.928 313.057 174.962 313.664 173.81C314.27 172.59 315.686 171.099 316.764 170.556C317.91 169.946 318.786 169.065 318.786 168.523C318.786 167.913 320.403 166.76 322.358 165.812C324.245 164.863 326.874 163.371 328.087 162.49C329.3 161.609 331.524 160.66 333.141 160.389C334.692 160.118 337.522 159.169 339.477 158.288C342.644 156.797 343.857 156.661 351.945 156.661C360.1 156.729 361.246 156.864 364.279 158.355C366.166 159.304 368.255 160.05 368.996 160.05C371.558 160.118 375.399 161.948 376.814 163.71C377.556 164.659 378.567 165.473 379.039 165.473C380.386 165.473 386.789 170.963 387.261 172.522C387.53 173.335 388.676 174.894 389.822 176.114C392.181 178.555 395.82 182.825 397.236 184.79C398.112 186.078 398.247 186.011 400.605 183.909C401.886 182.757 404.245 181.401 405.795 180.995C407.278 180.52 409.03 179.436 409.569 178.622C410.108 177.741 411.995 176.589 413.815 175.979C415.635 175.369 418.196 174.013 419.611 172.861C420.959 171.776 422.442 170.895 422.914 170.895C423.992 170.895 429.316 165.879 429.316 164.863C429.316 164.185 426.149 159.847 421.903 154.628C421.161 153.679 419.948 151.916 419.207 150.696C418.466 149.544 417.589 148.527 417.185 148.527C416.848 148.527 415.77 147.307 414.894 145.884C413.95 144.392 412.669 143.037 411.995 142.833C411.321 142.63 410.243 141.546 409.569 140.461C408.895 139.309 407.749 138.224 406.873 138.021C406.065 137.75 404.649 136.801 403.706 135.92C400.942 133.208 393.394 128.531 390.361 127.65C388.878 127.176 386.722 126.091 385.711 125.21C384.498 124.193 381.937 123.177 378.432 122.499C375.466 121.889 370.951 120.804 368.322 120.127C362.594 118.568 355.585 118.229 344.397 118.771Z" fill="#AFCAB3" fill-opacity="0.13"/>
<path d="M476.696 121.889C475.887 122.024 474.944 122.567 474.539 123.041C473.731 123.99 473.394 423.586 474.202 424.332C474.809 424.942 513.832 425.145 514.775 424.535C515.921 423.789 515.988 123.719 514.843 122.296C514.236 121.618 510.462 121.414 496.106 121.482C486.266 121.55 477.505 121.753 476.696 121.889Z" fill="#AFCAB3" fill-opacity="0.13"/>
</svg>
