<svg width="147" height="328" viewBox="0 0 147 328" fill="none" xmlns="http://www.w3.org/2000/svg">
<path d="M144 0C145.657 0 147 1.34315 147 3V18.4434C147 20.1001 145.657 21.4434 144 21.4434H134.421C134.546 22.041 134.612 22.6602 134.612 23.2949V47.3877C134.612 52.3581 130.583 56.3877 125.612 56.3877H90.0166V285.186H90.0107C89.79 301.54 79.5582 328 73.7998 328C68.0385 327.999 57.3923 302.292 57.1729 285.186H57.168V56.3877H20.5615C15.5911 56.3876 11.5617 52.3581 11.5615 47.3877V23.2949C11.5616 22.6602 11.6279 22.0409 11.7529 21.4434H3C1.34323 21.4434 0.000141186 20.1001 0 18.4434V3C0 1.34315 1.34315 0 3 0H144Z" fill="#79CA45"/>
<path d="M11.4972 21.0443H134.682V47.6018C134.682 52.5723 130.652 56.6018 125.682 56.6018H20.4972C15.5266 56.6018 11.4972 52.5723 11.4972 47.6018V21.0443Z" fill="#6DC13A"/>
<path d="M57.486 238.743H89.5139V269.221H57.486V238.743Z" fill="#CFFFD7"/>
<rect x="57.486" y="197.381" width="32.0279" height="30.4779" fill="#CFFFD7"/>
</svg>
