<svg width="334" height="378" viewBox="0 0 334 378" fill="none" xmlns="http://www.w3.org/2000/svg">
<g filter="url(#filter0_d_1_18)">
<path d="M163.542 21C187.481 21 208.183 30.1884 223.711 40.3105C239.241 50.4342 249.713 61.5682 253.241 65.6621C254.141 66.7066 255.47 68.7285 257.061 71.3359C258.681 73.9919 260.653 77.3902 262.856 81.291C267.265 89.0954 272.63 98.9595 278.019 109.018C288.797 129.136 299.691 150.074 303.266 156.963C304.226 158.814 304.707 160.836 304.707 162.907V335.76C304.707 342.939 298.887 348.76 291.707 348.76H34C26.8203 348.76 21 342.939 21 335.76V162.71C21 160.787 21.4159 158.904 22.25 157.156C25.3779 150.603 35.0028 130.529 44.9355 110.738C49.9013 100.844 54.9509 91.0078 59.3066 82.9619C63.6255 74.9842 67.3567 68.5862 69.667 65.7139C74.6464 59.5234 86.1989 48.376 102.413 38.7666C118.643 29.1482 139.662 21.0001 163.542 21ZM163.542 25C140.575 25.0001 120.258 32.8407 104.452 42.208C88.6319 51.584 77.4501 62.4201 72.7842 68.2207C70.7461 70.7545 67.1883 76.8049 62.8242 84.8662C58.4971 92.8593 53.469 102.654 48.5107 112.533C38.5956 132.289 28.9834 152.335 25.8594 158.88C25.2878 160.077 25 161.37 25 162.71V335.76C25 340.73 29.0294 344.76 34 344.76H291.707C296.677 344.76 300.707 340.73 300.707 335.76V162.907C300.707 161.463 300.374 160.075 299.715 158.805C296.143 151.921 285.259 131.001 274.493 110.906C269.11 100.857 263.761 91.0244 259.374 83.2588C257.18 79.3749 255.232 76.0202 253.646 73.4189C252.029 70.7698 250.863 69.03 250.211 68.2734C246.85 64.3733 236.654 53.5225 221.526 43.6611C206.396 33.7981 186.451 25 163.542 25ZM137.689 116.625C193.987 103.515 251.091 138.29 263.18 193.064C274.693 245.173 245.91 294.836 193.757 312.613C176.948 318.391 171.422 310.169 171.422 279.615V265.394L185.237 259.061C209.644 247.839 215.632 236.951 213.56 207.953C211.372 179.288 206.997 174.288 177.639 166.844C150.584 159.955 140.683 163.066 121.571 184.843C106.374 201.953 102.689 216.842 110.173 230.841C114.548 238.952 141.373 263.616 148.051 265.616C153.232 267.172 153.462 268.061 152.541 284.282C150.929 316.058 144.597 319.946 116.275 306.503C29.5832 265.505 43.9744 138.624 137.689 116.625ZM130.579 214.471C135.53 214.471 139.544 218.367 139.544 223.174C139.544 227.98 135.53 231.877 130.579 231.877C125.628 231.877 121.614 227.98 121.614 223.174C121.614 218.367 125.628 214.471 130.579 214.471Z" fill="url(#paint0_linear_1_18)"/>
</g>
<defs>
<filter id="filter0_d_1_18" x="0" y="0" width="333.707" height="377.76" filterUnits="userSpaceOnUse" color-interpolation-filters="sRGB">
<feFlood flood-opacity="0" result="BackgroundImageFix"/>
<feColorMatrix in="SourceAlpha" type="matrix" values="0 0 0 0 0 0 0 0 0 0 0 0 0 0 0 0 0 0 127 0" result="hardAlpha"/>
<feOffset dx="4" dy="4"/>
<feGaussianBlur stdDeviation="12.5"/>
<feComposite in2="hardAlpha" operator="out"/>
<feColorMatrix type="matrix" values="0 0 0 0 0 0 0 0 0 0 0 0 0 0 0 0 0 0 0.22 0"/>
<feBlend mode="normal" in2="BackgroundImageFix" result="effect1_dropShadow_1_18"/>
<feBlend mode="normal" in="SourceGraphic" in2="effect1_dropShadow_1_18" result="shape"/>
</filter>
<linearGradient id="paint0_linear_1_18" x1="162.854" y1="21" x2="162.854" y2="348.76" gradientUnits="userSpaceOnUse">
<stop stop-color="#79CA45"/>
<stop offset="1" stop-color="#6DC13A"/>
</linearGradient>
</defs>
</svg>
